{"title":"Love at First Hiccup 2009.DVDRip.XVID.FEEL-FREE","uid":5738243,"size":876160559,"categoryP":"video","categoryS":"movies","magnet":"?xt=urn:btih:f63899a4b798e88441f979c72c221e91e5ff0683&amp;dn=Love+at+First+Hiccup+2009.DVDRip.XVID.FEEL-FREE&amp;tr=udp%3A%2F%2Ftracker.openbittorrent.com%3A80&amp;tr=udp%3A%2F%2Fopen.demonii.com%3A1337&amp;tr=udp%3A%2F%2Ftracker.coppersurfer.tk%3A6969&amp;tr=udp%3A%2F%2Fexodus.desync.com%3A6969","seeders":10,"leechers":1,"uploader":"neon","files":8,"time":1280911341,"description":"Genre:Comedy\nLanguage:English\nIMDb:http://www.imdb.com/title/tt1307065/\nSource:DVD\nSample:YES\n...........................................\nGeneral\nComplete name : Love.at.First.Hiccup.2009.DVDRip.XVID.FEEL-FREE\nFormat : AVI\nFormat/Info : Audio Video Interleave\nFile size : 823 MiB\nDuration : 1h 25mn\nOverall bit rate : 1 341 Kbps\n...........................................\nVideo\nFormat : xvid\nCodec ID : xvid\nDuration : 1h 25mn\nBit rate : 1 200 Kbps\nWidth : 720 pixels\nHeight : 304 pixels\nDisplay aspect ratio : 2.35:1\nFrame rate : 25.000 fps\nResolution : 24 bits\nBits/(Pixel*Frame) : 0.219\nStream size : 737 MiB (89%)\n...........................................\nAudio\nID : 1\nFormat : MPEG Audio\nFormat version : Version 1\nFormat profile : Layer 3\nFormat settings, Mode : Joint stereo / MS Stereo\nCodec ID : 55\nCodec ID/Hint : MP3\nDuration : 1h 25mn\nBit rate mode : Constant\nBit rate : 128 Kbps\nChannel(s) : 2 channels\nSampling rate : 48.0 KHz\nResolution : 16 bits\nStream size : 78.6 MiB (10%)\nAlignment : Aligned on interleaves\nInterleave, duration : 24 ms (0.60 video frame)\nInterleave, preload duration : 24 ms\nWriting library : LAME3.97\n............................................\nPlot:\nA high school romantic comedy about freshman Victor who has contracted a case of Anya-itis, (acute and incurable love passion for high school senior Anja.) And why shouldn't he?","torrent":{"xt":"urn:btih:f63899a4b798e88441f979c72c221e91e5ff0683","amp;dn":"Love+at+First+Hiccup+2009.DVDRip.XVID.FEEL-FREE","amp;tr":["udp%3A%2F%2Ftracker.openbittorrent.com%3A80","udp%3A%2F%2Fopen.demonii.com%3A1337","udp%3A%2F%2Ftracker.coppersurfer.tk%3A6969","udp%3A%2F%2Fexodus.desync.com%3A6969"],"infoHash":"f63899a4b798e88441f979c72c221e91e5ff0683","infoHashBuffer":{"type":"Buffer","data":[246,56,153,164,183,152,232,132,65,249,121,199,44,34,30,145,229,255,6,131]},"announce":[],"urlList":[]}}